<?xml version="1.0" encoding="UTF-8" ?>
<!DOCTYPE svg PUBLIC "-//W3C//DTD SVG 1.1//EN" "http://www.w3.org/Graphics/SVG/1.1/DTD/svg11.dtd">
<svg width="1200pt" height="1040pt" viewBox="0 0 1200 1040" version="1.1" xmlns="http://www.w3.org/2000/svg">
<g id="#25545eff">
<path fill="#25545e" opacity="1.00" d=" M 0.00 0.00 L 461.64 0.00 C 502.63 71.70 544.18 143.08 585.36 214.66 C 590.32 222.86 594.62 231.47 600.00 239.39 C 602.33 236.45 603.90 233.02 605.82 229.81 C 645.35 161.33 684.87 92.84 724.39 24.36 C 729.05 16.25 733.86 8.22 738.34 0.00 L 1200.00 0.00 L 1200.00 0.91 L 1199.15 0.90 C 1173.11 0.36 1147.05 0.81 1121.00 0.67 C 1068.33 0.66 1015.65 0.69 962.98 0.65 C 961.62 0.82 959.71 0.46 959.03 1.97 C 844.63 200.23 730.20 398.46 615.77 596.70 C 610.46 605.55 605.78 614.81 600.00 623.35 C 599.63 622.91 598.88 622.04 598.51 621.60 C 479.45 415.28 360.32 209.00 241.31 2.66 C 240.60 0.88 238.74 0.59 237.05 0.66 C 164.36 0.67 91.68 0.66 18.99 0.67 C 12.94 0.71 6.88 0.48 0.84 0.91 L 0.00 0.92 L 0.00 0.00 Z" />
</g>
<g id="#3e8e9fff">
<path fill="#3e8e9f" opacity="1.00" d=" M 0.84 0.91 C 6.88 0.48 12.94 0.71 18.99 0.67 C 91.68 0.66 164.36 0.67 237.05 0.66 C 238.74 0.59 240.60 0.88 241.31 2.66 C 360.32 209.00 479.45 415.28 598.51 621.60 C 598.88 622.04 599.63 622.91 600.00 623.35 C 605.78 614.81 610.46 605.55 615.77 596.70 C 730.20 398.46 844.63 200.23 959.03 1.97 C 959.71 0.46 961.62 0.82 962.98 0.65 C 1015.65 0.69 1068.33 0.66 1121.00 0.67 C 1147.05 0.81 1173.11 0.36 1199.15 0.90 C 1195.86 8.11 1191.39 14.70 1187.61 21.65 C 1160.62 68.32 1133.72 115.04 1106.74 161.71 C 1101.41 170.58 1096.77 179.89 1090.90 188.41 C 1072.76 178.05 1052.59 171.33 1031.95 168.16 C 1021.89 167.44 1011.81 165.64 1001.71 166.64 C 947.80 167.83 895.03 195.99 864.70 240.71 C 855.22 255.16 847.10 270.45 838.24 285.29 C 817.90 320.27 797.70 355.34 777.37 390.33 C 766.20 409.02 758.68 429.87 755.45 451.40 C 754.28 457.20 754.69 463.13 753.97 468.98 C 753.82 481.38 753.67 494.00 756.82 506.08 C 757.51 517.87 762.42 528.79 766.44 539.71 C 780.52 575.01 807.58 604.76 841.02 622.72 C 835.01 631.67 830.18 641.35 824.58 650.56 C 798.49 695.82 772.36 741.05 746.26 786.30 C 743.65 790.94 740.77 795.43 738.47 800.24 C 720.84 789.71 708.68 771.60 702.82 752.16 C 699.38 735.02 700.19 716.63 707.47 700.54 C 710.25 693.37 714.62 687.00 718.37 680.34 C 734.24 652.88 750.17 625.46 766.10 598.04 C 766.97 596.15 768.94 593.76 767.19 591.80 C 758.55 580.47 751.92 567.76 746.07 554.80 C 739.73 540.26 735.05 524.93 732.66 509.23 C 730.91 503.66 731.35 497.75 730.74 492.01 C 728.85 491.83 727.27 492.71 726.30 494.31 C 716.92 507.02 709.83 521.19 701.69 534.69 C 679.97 571.97 658.42 609.35 636.77 646.68 C 626.97 663.19 619.64 681.31 616.14 700.23 C 607.04 744.82 617.60 792.89 644.26 829.75 C 657.37 848.53 674.99 863.78 694.29 875.95 C 687.57 888.52 680.08 900.65 673.09 913.07 C 652.33 948.98 631.64 984.93 610.87 1020.83 C 607.13 1026.86 604.15 1033.39 599.99 1039.14 C 599.65 1038.70 598.97 1037.84 598.63 1037.40 C 401.83 696.52 205.10 355.58 8.32 14.69 C 5.79 10.12 2.77 5.79 0.84 0.91 Z" />
<path fill="#3e8e9f" opacity="1.00" d=" M 975.10 259.09 C 983.31 254.54 992.84 254.02 1001.97 253.10 C 1018.01 252.47 1034.12 256.54 1048.04 264.51 C 1043.90 269.47 1041.34 275.49 1037.92 280.94 C 1006.89 334.70 975.92 388.49 944.81 442.20 C 935.10 437.49 925.08 433.47 914.81 430.18 C 910.34 429.00 905.93 427.37 901.29 427.09 C 898.36 430.11 896.73 434.05 894.59 437.61 C 890.86 444.22 886.64 450.61 883.63 457.60 C 881.73 462.86 880.46 468.40 880.01 473.98 C 880.17 478.27 881.05 482.50 881.35 486.79 C 883.89 498.94 891.44 509.65 901.24 517.12 C 896.34 527.45 889.58 536.80 884.65 547.11 C 877.95 543.09 871.49 538.60 865.78 533.24 C 853.78 521.35 845.37 505.77 842.75 489.03 C 840.02 471.46 842.67 452.95 851.35 437.33 C 874.94 396.03 899.10 355.04 922.83 313.82 C 928.83 304.15 933.64 293.70 940.76 284.76 C 949.50 273.20 961.79 264.62 975.10 259.09 Z" />
</g>
<g id="#20cda8ff">
<path fill="#20cda8" opacity="1.00" d=" M 1001.71 166.64 C 1011.81 165.64 1021.89 167.44 1031.95 168.16 C 1052.59 171.33 1072.76 178.05 1090.90 188.41 C 1110.81 199.88 1128.75 215.13 1142.23 233.80 C 1149.22 242.18 1154.46 251.83 1159.35 261.55 C 1167.44 278.85 1173.07 297.47 1174.61 316.56 C 1175.77 323.31 1175.93 330.18 1175.60 337.01 C 1175.48 361.40 1169.40 385.66 1158.49 407.44 C 1151.08 421.80 1142.54 435.53 1134.52 449.54 C 1115.99 481.94 1097.06 514.10 1078.41 546.41 C 1073.02 555.52 1068.10 565.05 1061.15 573.11 C 1060.23 574.19 1059.75 575.80 1058.19 576.09 C 1057.80 571.07 1057.53 566.05 1056.82 561.07 C 1056.40 558.42 1055.11 555.91 1055.33 553.19 C 1055.39 551.18 1055.54 549.12 1054.86 547.19 C 1052.44 539.75 1051.09 531.98 1048.28 524.67 C 1045.02 518.66 1043.37 511.96 1040.13 505.94 C 1034.73 494.22 1027.89 483.25 1020.42 472.75 C 1020.98 470.71 1021.99 468.83 1023.08 467.02 C 1040.02 437.95 1056.81 408.78 1073.82 379.73 C 1078.85 371.22 1083.29 362.25 1085.53 352.57 C 1087.81 344.69 1087.31 336.43 1087.47 328.33 C 1087.05 316.72 1083.23 305.45 1077.77 295.29 C 1070.89 282.56 1060.23 272.16 1048.04 264.51 C 1034.12 256.54 1018.01 252.47 1001.97 253.10 C 992.84 254.02 983.31 254.54 975.10 259.09 C 961.79 264.62 949.50 273.20 940.76 284.76 C 933.64 293.70 928.83 304.15 922.83 313.82 C 899.10 355.04 874.94 396.03 851.35 437.33 C 842.67 452.95 840.02 471.46 842.75 489.03 C 845.37 505.77 853.78 521.35 865.78 533.24 C 871.49 538.60 877.95 543.09 884.65 547.11 C 892.44 553.03 899.77 560.08 903.86 569.13 C 909.76 581.71 909.92 596.78 904.64 609.59 C 899.97 619.58 893.87 628.82 888.34 638.35 C 887.47 640.61 884.88 639.05 883.23 638.84 C 868.52 635.34 854.43 629.64 841.02 622.72 C 807.58 604.76 780.52 575.01 766.44 539.71 C 762.42 528.79 757.51 517.87 756.82 506.08 C 753.67 494.00 753.82 481.38 753.97 468.98 C 754.69 463.13 754.28 457.20 755.45 451.40 C 758.68 429.87 766.20 409.02 777.37 390.33 C 797.70 355.34 817.90 320.27 838.24 285.29 C 847.10 270.45 855.22 255.16 864.70 240.71 C 895.03 195.99 947.80 167.83 1001.71 166.64 Z" />
<path fill="#20cda8" opacity="1.00" d=" M 901.29 427.09 C 905.93 427.37 910.34 429.00 914.81 430.18 C 925.08 433.47 935.10 437.49 944.81 442.20 C 970.03 454.78 991.34 474.60 1007.19 497.80 C 1013.46 508.54 1020.31 519.24 1023.74 531.30 C 1025.12 534.58 1026.87 537.72 1027.79 541.19 C 1029.45 547.37 1031.68 553.49 1031.88 559.95 C 1032.03 563.70 1033.60 567.21 1033.91 570.95 C 1034.42 577.95 1034.69 584.97 1035.04 591.98 C 1034.49 609.11 1032.32 626.36 1026.57 642.59 C 1021.46 658.84 1012.82 673.62 1004.21 688.21 C 984.02 722.74 964.23 757.51 944.03 792.03 C 935.15 806.71 927.45 822.19 916.57 835.56 C 889.04 869.98 847.72 892.93 804.04 898.45 C 795.24 898.64 786.47 900.90 777.67 899.55 C 748.41 899.59 719.33 890.97 694.29 875.95 C 674.99 863.78 657.37 848.53 644.26 829.75 C 617.60 792.89 607.04 744.82 616.14 700.23 C 619.64 681.31 626.97 663.19 636.77 646.68 C 658.42 609.35 679.97 571.97 701.69 534.69 C 709.83 521.19 716.92 507.02 726.30 494.31 C 727.27 492.71 728.85 491.83 730.74 492.01 C 731.35 497.75 730.91 503.66 732.66 509.23 C 735.05 524.93 739.73 540.26 746.07 554.80 C 751.92 567.76 758.55 580.47 767.19 591.80 C 768.94 593.76 766.97 596.15 766.10 598.04 C 750.17 625.46 734.24 652.88 718.37 680.34 C 714.62 687.00 710.25 693.37 707.47 700.54 C 700.19 716.63 699.38 735.02 702.82 752.16 C 708.68 771.60 720.84 789.71 738.47 800.24 C 753.59 810.04 772.03 814.15 789.91 812.87 C 795.79 811.82 802.02 812.34 807.46 809.45 C 818.18 805.76 828.37 800.36 836.92 792.86 C 845.73 785.51 852.40 775.95 857.88 765.96 C 880.50 726.58 903.55 687.45 926.14 648.07 C 930.58 640.18 935.49 632.54 939.43 624.39 C 943.80 614.89 946.33 604.53 946.84 594.09 C 947.28 586.34 946.02 578.66 945.05 571.01 C 944.50 565.97 941.11 562.00 939.77 557.23 C 935.49 548.08 929.68 539.64 922.30 532.71 C 916.28 526.26 908.24 522.33 901.24 517.12 C 891.44 509.65 883.89 498.94 881.35 486.79 C 881.05 482.50 880.17 478.27 880.01 473.98 C 880.46 468.40 881.73 462.86 883.63 457.60 C 886.64 450.61 890.86 444.22 894.59 437.61 C 896.73 434.05 898.36 430.11 901.29 427.09 Z" />
</g>
</svg>
